<?xml version="1.0" encoding="UTF-8"?>
<svg id="Layer_2" data-name="Layer 2" xmlns="http://www.w3.org/2000/svg" viewBox="0 0 54.05 52">
  <defs>
    <style>
      .cls-1 {
        fill: #32b4b1;
      }
    </style>
  </defs>
  <g id="Website">
    <g>
      <path class="cls-1" d="M34.29,18.21h-14.6c-2.64,0-4.78,2.15-4.78,4.78v6.06c0,2.64,2.15,4.78,4.78,4.78h14.6c2.64,0,4.78-2.15,4.78-4.78v-6.06c0-2.64-2.15-4.78-4.78-4.78h0ZM36.96,29.05c0,1.47-1.2,2.67-2.67,2.67h-14.6c-1.47,0-2.67-1.2-2.67-2.67v-6.06c0-1.47,1.2-2.67,2.67-2.67h14.6c1.47,0,2.67,1.2,2.67,2.67v6.06Z"/>
      <path class="cls-1" d="M34.29,36.37h-14.6c-2.64,0-4.78,2.15-4.78,4.78v6.06c0,2.64,2.15,4.78,4.78,4.78h14.6c2.64,0,4.78-2.15,4.78-4.78v-6.06c0-2.64-2.15-4.78-4.78-4.78h0ZM36.96,47.22c0,1.47-1.2,2.67-2.67,2.67h-14.6c-1.47,0-2.67-1.2-2.67-2.67v-6.06c0-1.47,1.2-2.67,2.67-2.67h14.6c1.47,0,2.67,1.2,2.67,2.67v6.06Z"/>
      <path class="cls-1" d="M34.29,0h-2.51c-.58,0-1.06.47-1.06,1.06s.47,1.06,1.06,1.06h2.51c1.47,0,2.67,1.2,2.67,2.67v6.06c0,1.47-1.2,2.67-2.67,2.67h-14.6c-1.47,0-2.67-1.2-2.67-2.67v-6.06c0-1.47,1.2-2.67,2.67-2.67h2.79c.58,0,1.06-.47,1.06-1.06S23.06,0,22.48,0h-2.79C17.05,0,14.9,2.15,14.9,4.78v6.06c0,2.64,2.15,4.78,4.78,4.78h14.6c2.64,0,4.78-2.15,4.78-4.78v-6.06C39.07,2.15,36.93,0,34.29,0h0Z"/>
      <path class="cls-1" d="M45.71,24.96h-3.29c-.58,0-1.06.47-1.06,1.06s.47,1.06,1.06,1.06h3.29c3.44,0,6.23,2.8,6.23,6.23v3.59c0,3.44-2.8,6.23-6.23,6.23h-.74l1.1-1.1c.41-.41.41-1.08,0-1.49-.41-.41-1.08-.41-1.49,0l-2.9,2.9c-.41.41-.41,1.09,0,1.49l2.9,2.9c.41.41,1.09.41,1.49,0,.41-.41.41-1.08,0-1.49l-1.1-1.1h.74c4.6,0,8.34-3.74,8.34-8.34v-3.59c0-4.6-3.74-8.34-8.34-8.34h0Z"/>
      <path class="cls-1" d="M8.34,27.21h.74l-1.1,1.1c-.41.41-.41,1.08,0,1.49.4.4,1.09.4,1.49,0l2.9-2.9c.4-.4.4-1.09,0-1.49l-2.9-2.9c-.41-.41-1.08-.41-1.49,0-.41.41-.41,1.08,0,1.49l1.1,1.1h-.74c-3.44,0-6.23-2.8-6.23-6.23v-3.59c0-3.44,2.8-6.23,6.23-6.23h3.29c.58,0,1.06-.47,1.06-1.06s-.47-1.06-1.06-1.06h-3.29C3.74,6.93,0,10.67,0,15.27v3.59c0,4.6,3.74,8.34,8.34,8.34h0Z"/>
      <path class="cls-1" d="M11.65,43.13h-5.96l1.1-1.1c.41-.41.41-1.08,0-1.49-.41-.41-1.08-.41-1.49,0l-2.9,2.9c-.4.4-.4,1.09,0,1.49l2.9,2.9c.4.4,1.09.4,1.49,0,.41-.41.41-1.08,0-1.49l-1.1-1.1h5.96c.58,0,1.06-.47,1.06-1.06s-.47-1.06-1.06-1.06h0Z"/>
      <path class="cls-1" d="M41.56,6.62c-.32.41-.28,1.02.09,1.39l2.9,2.9c.41.41,1.09.41,1.49,0,.41-.41.41-1.08,0-1.49l-1.1-1.1h5.96c.58,0,1.06-.47,1.06-1.06s-.47-1.06-1.06-1.06h-5.96l1.1-1.1c.41-.41.41-1.08,0-1.49-.41-.41-1.08-.41-1.49,0l-2.9,2.9s-.06.07-.09.11Z"/>
      <path class="cls-1" d="M20.14,7.81c0,.58.47,1.06,1.06,1.06h11.72c.58,0,1.06-.47,1.06-1.06s-.47-1.06-1.06-1.06h-11.72c-.58,0-1.06.47-1.06,1.06h0Z"/>
      <path class="cls-1" d="M28.28,24.96h-7.09c-.58,0-1.06.47-1.06,1.06s.47,1.06,1.06,1.06h7.09c.58,0,1.06-.47,1.06-1.06s-.47-1.06-1.06-1.06h0Z"/>
      <path class="cls-1" d="M32.91,43.17h-11.72c-.58,0-1.06.47-1.06,1.06s.47,1.06,1.06,1.06h11.72c.58,0,1.06-.47,1.06-1.06s-.47-1.06-1.06-1.06Z"/>
      <path class="cls-1" d="M33.88,25.61c-.36-.87-1.65-.84-1.97.05-.15.42-.01.91.34,1.19.34.27.82.3,1.2.07.44-.27.62-.83.43-1.31h0Z"/>
      <path class="cls-1" d="M26.21,1.46c.22.53.85.79,1.38.57.53-.22.79-.85.57-1.38-.22-.53-.85-.79-1.38-.57-.53.22-.79.85-.57,1.38Z"/>
    </g>
  </g>
</svg>