<?xml version="1.0" encoding="UTF-8"?>
<svg id="Layer_2" data-name="Layer 2" xmlns="http://www.w3.org/2000/svg" viewBox="0 0 60 59.78">
  <defs>
    <style>
      .cls-1 {
        fill: #32b4b1;
      }
    </style>
  </defs>
  <g id="Website">
    <g>
      <path class="cls-1" d="M31.98,25.38l-3.26,8.57,1.64.63.78-2.04h3.18l.77,2.04,1.64-.62-3.24-8.57h-1.52ZM31.81,30.77l.93-2.44.92,2.44h-1.85Z"/>
      <path class="cls-1" d="M8.57,25.36h-1.76v9.04h4.31v-1.76h-2.55v-7.28Z"/>
      <path class="cls-1" d="M13.01,34.34h4.8v-1.76h-3.04v-1.85h2.82v-1.76h-2.82v-1.85h3.04v-1.76h-4.8v8.98Z"/>
      <path class="cls-1" d="M24.08,30.73h2.08c-.23.99-.87,1.88-2.17,1.88-1.52,0-2.76-1.24-2.76-2.76s1.24-2.76,2.76-2.76c.55,0,1.09.16,1.54.47l.73.49.98-1.46-.73-.49c-.75-.51-1.62-.77-2.53-.77-2.49,0-4.52,2.03-4.52,4.52s2.03,4.52,4.52,4.52,4.02-1.86,4.02-4.52v-.88h-3.94v1.76Z"/>
      <path class="cls-1" d="M52.05,25.09l-2.05,3.15-2.07-3.17-1.47.96,2.66,4.08v4.34s1.75,0,1.75,0v-4.34s2.66-4.06,2.66-4.06l-1.47-.96Z"/>
      <path class="cls-1" d="M43.49,31.9c-.4.47-.94.71-1.62.71-1.52,0-2.76-1.24-2.76-2.76s1.24-2.76,2.76-2.76c.55,0,1.09.16,1.54.47l.73.49.98-1.46-.73-.49c-.75-.51-1.62-.77-2.53-.77-2.49,0-4.52,2.03-4.52,4.52s2.03,4.52,4.52,4.52c1.19,0,2.24-.48,2.97-1.34l.56-.67-1.35-1.13-.56.67Z"/>
      <path class="cls-1" d="M29.12,37.36h1.76v1.76h-1.76v-1.76Z"/>
      <path class="cls-1" d="M57.36,20.66h-1.64l.16-5.72-7.1-3.84-3.84-7.1-8.07.23L30,0l-6.87,4.23-8.07-.23-3.84,7.1-7.1,3.84.16,5.72h-1.64c-1.45,0-2.64,1.18-2.64,2.64v13.18c0,1.45,1.18,2.64,2.64,2.64h1.64l-.16,5.72,7.1,3.84,3.84,7.1,8.07-.23,6.87,4.23,6.87-4.23,8.07.23,3.84-7.1,7.1-3.84-.16-5.72h1.64c1.45,0,2.64-1.18,2.64-2.64v-13.18c0-1.45-1.18-2.64-2.64-2.64ZM5.9,15.98l6.61-3.57,3.57-6.61,7.51.21,6.4-3.94,6.4,3.94,7.51-.21,3.57,6.61,6.61,3.57-.13,4.68h-4.02c-3.59-7.76-11.36-12.74-19.94-12.74-3.99,0-7.9,1.08-11.3,3.12l.91,1.51c3.13-1.88,6.72-2.87,10.39-2.87,7.62,0,14.54,4.27,17.99,10.99H12.01c1.46-2.84,3.58-5.3,6.18-7.18l-1.03-1.43c-3.08,2.22-5.52,5.19-7.11,8.61h-4.02l-.13-4.68ZM54.1,43.8l-6.61,3.57-3.57,6.61-7.51-.21-6.4,3.94-6.4-3.94-7.51.21-3.57-6.61-6.61-3.57.13-4.68h4.02c3.59,7.76,11.36,12.74,19.94,12.74s16.35-4.98,19.94-12.74h4.02l.13,4.68ZM58.24,36.48c0,.48-.39.88-.88.88h-24.73v1.76h15.35c-3.45,6.72-10.37,10.99-17.99,10.99s-14.54-4.27-17.99-10.99h15.35v-1.76H2.64c-.48,0-.88-.39-.88-.88v-13.18c0-.48.39-.88.88-.88h54.73c.48,0,.88.39.88.88v13.18Z"/>
      <path class="cls-1" d="M35.27,13.19h1.76v1.76h-1.76v-1.76Z"/>
      <path class="cls-1" d="M38.79,14.95h1.76v1.76h-1.76v-1.76Z"/>
    </g>
  </g>
</svg>