<?xml version="1.0" encoding="UTF-8"?>
<svg id="Layer_2" data-name="Layer 2" xmlns="http://www.w3.org/2000/svg" viewBox="0 0 60 46.61">
  <defs>
    <style>
      .cls-1 {
        fill: #32b4b1;
      }
    </style>
  </defs>
  <g id="Website">
    <g>
      <path class="cls-1" d="M37.18,5.91c4.65-4.65,12.22-4.65,16.87,0,.18.18.42.27.66.27s.48-.09.66-.28c.37-.37.37-.96,0-1.33-5.38-5.38-14.14-5.38-19.52,0-.37.37-.37.96,0,1.33.36.37.96.37,1.32,0Z"/>
      <path class="cls-1" d="M51.42,9.47c.24,0,.48-.09.66-.28.37-.37.37-.96,0-1.33-3.57-3.56-9.37-3.56-12.94,0-.37.37-.37.96,0,1.33s.96.37,1.33,0c2.84-2.83,7.45-2.83,10.29,0,.18.18.42.28.66.28h0Z"/>
      <path class="cls-1" d="M48.79,12.48c.37-.37.37-.96,0-1.33-1.75-1.75-4.6-1.75-6.36,0-.37.37-.37.96,0,1.33.18.18.42.28.66.28s.48-.09.66-.27c1.02-1.02,2.68-1.02,3.71,0,.37.37.96.37,1.33,0h0Z"/>
      <path class="cls-1" d="M45.61,14.17c-.52,0-.94.42-.94.94s.42.94.94.94.94-.42.94-.94-.42-.94-.94-.94Z"/>
      <path class="cls-1" d="M47.09,21.03c-5.81-.64-11.6.36-16.78,2.84l-.99-1.55c-.22-.35-.57-.59-.97-.68-.35-.08-.71-.03-1.02.13l-1.39-2.19c-.59-.94-.55-2.16.1-3.06l3.34-4.56c1.16-1.59,1.65-3.54,1.38-5.49-.27-1.95-1.28-3.69-2.84-4.9-1.87-1.45-4.25-1.92-6.53-1.3-2.29.62-4.11,2.24-4.99,4.44L6.19,30.12h-.06c-1.14,0-2.07.93-2.07,2.07v2.57c-2.3.38-4.06,2.38-4.06,4.8v2.38c0,.87.71,1.58,1.58,1.58h13.34c.87,0,1.58-.71,1.58-1.58v-2.38h0c0-2.14-1.38-3.95-3.3-4.61v-2.76c0-1.09-.85-1.99-1.93-2.06L20.79,6.47c.33-.82,1-1.42,1.84-1.65.84-.23,1.71-.05,2.4.48,1.19.92,1.43,2.65.54,3.86l-3.34,4.56c-1.79,2.45-1.91,5.81-.28,8.38l1.41,2.23c-.54.5-.66,1.33-.25,1.97l.98,1.54c-2.41,2.12-4.09,4.96-4.8,8.07-.02.07-.04.14-.05.21-.22,1.04-.34,2.1-.34,3.18,0,2.34,1.89,4.24,4.22,4.24h18.31c1.53,1.88,3.86,3.08,6.47,3.08s4.93-1.2,6.47-3.08h1.41c2.33,0,4.22-1.9,4.22-4.24v-3.8c0-7.43-5.55-13.65-12.91-14.46h0ZM28.64,24.73c-1.05.58-2.08,1.24-3.07,1.95l-.71-1.11,3.06-1.96.72,1.13ZM14.63,41.65H1.87v-1.15h12.76v1.15ZM14.48,38.63H2.02c.39-1.19,1.51-2.05,2.83-2.05h6.79c1.32,0,2.44.86,2.83,2.05ZM11.34,34.7h-5.41v-2.5c0-.11.09-.2.2-.2h5.01c.11,0,.2.09.2.2v2.5ZM23.74,14.83l3.34-4.56c1.48-2.02,1.08-4.92-.91-6.45-1.16-.89-2.63-1.19-4.04-.81-1.41.39-2.54,1.39-3.09,2.76l-9.78,24.36h-1.05L18.14,5.41c.66-1.65,2.02-2.87,3.74-3.33,1.71-.46,3.49-.11,4.89.98,1.17.9,1.93,2.21,2.13,3.67.21,1.46-.16,2.93-1.04,4.12l-3.34,4.56c-1.11,1.51-1.18,3.59-.17,5.17l1.39,2.19-.82.53-1.39-2.2c-1.22-1.91-1.13-4.43.21-6.26h0ZM26.04,28.65c5.98-4.54,13.39-6.59,20.84-5.76,3.17.35,5.96,1.86,7.97,4.08-2.05-1.28-4.45-1.99-6.95-1.99-4.32,0-8.38,2.13-10.85,5.7-1.99,2.87-5.31,4.59-8.88,4.59h-6.77c.83-2.61,2.44-4.94,4.65-6.62h0ZM47.9,44.74c-3.57,0-6.48-2.92-6.48-6.51s2.91-6.51,6.48-6.51,6.48,2.92,6.48,6.51-2.91,6.51-6.48,6.51ZM58.12,39.29c0,1.3-1.05,2.36-2.35,2.36h-.26c.47-1.05.73-2.2.73-3.42,0-4.62-3.75-8.38-8.35-8.38s-8.35,3.76-8.35,8.38c0,1.22.26,2.38.73,3.42h-17.16c-1.29,0-2.35-1.06-2.35-2.36,0-.72.06-1.44.18-2.15h7.22c4.19,0,8.09-2.02,10.42-5.4,2.12-3.06,5.6-4.89,9.31-4.89,4.15,0,7.94,2.26,9.94,5.91.19.88.29,1.79.29,2.72v3.8h0Z"/>
      <path class="cls-1" d="M47.9,33.4c-2.65,0-4.81,2.17-4.81,4.83s2.16,4.83,4.81,4.83,4.81-2.17,4.81-4.83-2.16-4.83-4.81-4.83h0ZM47.9,41.19c-1.62,0-2.94-1.33-2.94-2.95s1.32-2.95,2.94-2.95,2.94,1.33,2.94,2.95c0,1.63-1.32,2.95-2.94,2.95Z"/>
    </g>
  </g>
</svg>