<?xml version="1.0" encoding="UTF-8"?>
<svg id="Layer_2" data-name="Layer 2" xmlns="http://www.w3.org/2000/svg" viewBox="0 0 60 42.58">
  <defs>
    <style>
      .cls-1 {
        fill: #32b4b1;
      }
    </style>
  </defs>
  <g id="Website">
    <g>
      <path class="cls-1" d="M11.87,20.34c-3.84,0-6.96-3.09-6.96-6.9s3.12-6.9,6.96-6.9,6.96,3.09,6.96,6.9-3.12,6.9-6.96,6.9ZM11.87,8.48c-2.77,0-5.03,2.23-5.03,4.96s2.25,4.96,5.03,4.96,5.02-2.23,5.02-4.96-2.25-4.96-5.02-4.96Z"/>
      <path class="cls-1" d="M14.67,39.43H2.53c-1.39,0-2.53-1.13-2.53-2.51v-3.17c0-6.48,5.32-11.75,11.87-11.75,2.57,0,5.02.8,7.08,2.32.43.32.52.92.2,1.35-.32.43-.92.52-1.35.2-1.72-1.27-3.78-1.94-5.93-1.94-5.48,0-9.93,4.4-9.93,9.82v3.17c0,.32.27.58.59.58h12.14c.53,0,.97.43.97.97s-.43.97-.97.97Z"/>
      <path class="cls-1" d="M57.47,38.7h-12.14c-.53,0-.97-.43-.97-.97s.43-.97.97-.97h12.14c.33,0,.59-.26.59-.58v-3.17c0-5.41-4.46-9.82-9.93-9.82-2.29,0-4.52.79-6.29,2.22-.41.34-1.02.27-1.36-.14-.34-.42-.27-1.02.14-1.36,2.11-1.71,4.78-2.65,7.51-2.65,6.54,0,11.87,5.27,11.87,11.75v3.17c0,1.39-1.13,2.51-2.53,2.51Z"/>
      <path class="cls-1" d="M48.13,19.86c-3.84,0-6.96-3.09-6.96-6.9s3.12-6.9,6.96-6.9,6.96,3.09,6.96,6.9-3.12,6.9-6.96,6.9ZM48.13,8c-2.77,0-5.02,2.23-5.02,4.96s2.25,4.96,5.02,4.96,5.03-2.23,5.03-4.96-2.25-4.96-5.03-4.96Z"/>
      <path class="cls-1" d="M43.13,42.58h-26.27c-1.75,0-3.16-1.41-3.16-3.14v-4.45c0-8.9,7.31-16.14,16.3-16.14s16.3,7.24,16.3,16.14v4.45c0,1.73-1.42,3.14-3.16,3.14ZM30,20.79c-7.92,0-14.36,6.37-14.36,14.2v4.45c0,.66.55,1.21,1.23,1.21h26.27c.68,0,1.23-.54,1.23-1.21v-4.45c0-7.83-6.44-14.2-14.36-14.2Z"/>
      <path class="cls-1" d="M29.66,17.72c-4.93,0-8.94-3.97-8.94-8.86S24.73,0,29.66,0s8.94,3.97,8.94,8.86-4.01,8.86-8.94,8.86ZM29.66,1.94c-3.86,0-7.01,3.11-7.01,6.92s3.14,6.92,7.01,6.92,7.01-3.11,7.01-6.92-3.14-6.92-7.01-6.92Z"/>
    </g>
  </g>
</svg>